<?xml version="1.0" encoding="UTF-8"?>
<!-- Generated by jsxcad -->
<!DOCTYPE svg PUBLIC "-//W3C//DTD SVG 1.1 Tiny//EN" "http://www.w3.org/Graphics/SVG/1.1/DTD/svg11-tiny.dtd">
<svg baseProfile="tiny" height="19.948693233918966mm" width="19.97433014342107mm" viewBox="0 0 19.97433014342107 19.948693233918966" version="1.1" stroke="black" stroke-width=".1" fill="none" xmlns="http://www.w3.org/2000/svg">
<path fill="#c0c0c0" stroke="#c0c0c0" d="M6.04361 19.16392 L4.27448 18.18198 L2.73924 16.86402 L1.50072 15.26399 L0.60964 13.4474 L0.10248 11.48862 L0 9.46785 L0.30639 7.46782 L1.00912 5.57041 L2.07941 3.85329 L3.47344 2.38677 L5.13415 1.23088 L6.99353 0.43295 L8.97548 0.02565 L10.99885 0.02565 L12.9808 0.43295 L14.84018 1.23088 L16.50089 2.38677 L17.89492 3.85329 L18.96521 5.57041 L19.66794 7.46782 L19.97433 9.46785 L19.87185 11.48862 L19.36469 13.4474 L18.47361 15.26399 L17.23509 16.86402 L15.69985 18.18198 L13.93072 19.16392 L12.00015 19.76965 L9.98717 19.97435 L7.97418 19.76965 z"/>
<path fill="#c0c0c0" stroke="#c0c0c0" d="M12.000149603160585 19.76964609755947 L12.000149603160585 19.76964609755947 L9.987169609058288 19.97434615555631 L9.987169609058288 19.97434615555631 z"/>
<path fill="#c0c0c0" stroke="#c0c0c0" d="M7.9741803983073325 19.769646083124247 L7.9741803983073325 19.769646083124247 L9.987170290059337 19.97434714761369 L9.987170290059337 19.97434714761369 z"/>
<path fill="#c0c0c0" stroke="#c0c0c0" d="M18.473606940857884 15.263987632047742 L18.473606940857884 15.263987632047742 L17.23508981173467 16.86401985427179 L17.23508981173467 16.86401985427179 z"/>
<path fill="#c0c0c0" stroke="#c0c0c0" d="M15.699849330195446 18.181979219771083 L15.699849330195446 18.181979219771083 L17.235089177129247 16.864019041470307 L17.235089177129247 16.864019041470307 z"/>
<path fill="#c0c0c0" stroke="#c0c0c0" d="M19.364686754817594 13.447398408162034 L19.364686754817594 13.447398408162034 L18.473606806300054 15.263988433415385 L18.473606806300054 15.263988433415385 z"/>
<path fill="#c0c0c0" stroke="#c0c0c0" d="M13.930722861630175 19.163925155669773 L13.930722861630175 19.163925155669773 L15.699849782527242 18.18197960818916 L15.699849782527242 18.18197960818916 z"/>
<path fill="#c0c0c0" stroke="#c0c0c0" d="M19.87184948657953 11.48861986706623 L19.87184948657953 11.48861986706623 L19.36468641241816 13.447399071110704 L19.36468641241816 13.447399071110704 z"/>
<path fill="#c0c0c0" stroke="#c0c0c0" d="M13.930721676625463 19.163925343791703 L13.930721676625463 19.163925343791703 L12.000148890315014 19.76964646317824 L12.000148890315014 19.76964646317824 z"/>
<path fill="#c0c0c0" stroke="#c0c0c0" d="M19.974329402415957 9.467850091546508 L19.974329402415957 9.467850091546508 L19.667936152379962 7.467820589433709 L19.667936152379962 7.467820589433709 z"/>
<path fill="#c0c0c0" stroke="#c0c0c0" d="M18.965212006449672 5.570409256892639 L18.965212006449672 5.570409256892639 L19.667936289890704 7.467821374073598 L19.667936289890704 7.467821374073598 z"/>
<path fill="#c0c0c0" stroke="#c0c0c0" d="M18.965212535633267 5.5704084195276975 L18.965212535633267 5.5704084195276975 L17.894923198374723 3.853288006437791 L17.894923198374723 3.853288006437791 z"/>
<path fill="#c0c0c0" stroke="#c0c0c0" d="M19.974330392360837 9.46785001989829 L19.974330392360837 9.46785001989829 L19.871848541480166 11.488619926032245 L19.871848541480166 11.488619926032245 z"/>
<path fill="#c0c0c0" stroke="#c0c0c0" d="M14.840181319281125 1.2308781045370845 L14.840181319281125 1.2308781045370845 L16.500892128520828 2.386766941870672 L16.500892128520828 2.386766941870672 z"/>
<path fill="#c0c0c0" stroke="#c0c0c0" d="M16.500892248932672 2.3867678622300814 L16.500892248932672 2.3867678622300814 L17.894922884562803 3.8532872580185886 L17.894922884562803 3.8532872580185886 z"/>
<path fill="#c0c0c0" stroke="#c0c0c0" d="M10.998849263712227 0.02565358281778484 L10.998849263712227 0.02565358281778484 L12.980799050976414 0.432954618002245 L12.980799050976414 0.432954618002245 z"/>
<path fill="#c0c0c0" stroke="#c0c0c0" d="M12.98079795603566 0.4329547630001464 L12.98079795603566 0.4329547630001464 L14.840180565388 1.230878682490158 L14.840180565388 1.230878682490158 z"/>
<path fill="#c0c0c0" stroke="#c0c0c0" d="M6.9935320662686875 0.4329548149754269 L6.9935320662686875 0.4329548149754269 L5.134149456916346 1.2308787344654355 L5.134149456916346 1.2308787344654355 z"/>
<path fill="#c0c0c0" stroke="#c0c0c0" d="M8.975480742099348 0.025653611097254923 L8.975480742099348 0.025653611097254923 L6.9935309548351645 0.4329546462817154 L6.9935309548351645 0.4329546462817154 z"/>
<path fill="#c0c0c0" stroke="#c0c0c0" d="M8.975479999999997 0.025653383040530994 L8.975479999999997 0.025653383040530994 L10.998849999999997 0.025653383040532773 L10.998849999999997 0.025653383040532773 z"/>
<path fill="#c0c0c0" stroke="#c0c0c0" d="M2.0794071907798086 3.853287329637084 L2.0794071907798086 3.853287329637084 L3.4734378264099393 2.3867679338485783 L3.4734378264099393 2.3867679338485783 z"/>
<path fill="#c0c0c0" stroke="#c0c0c0" d="M3.473437918284258 2.3867670091173796 L3.473437918284258 2.3867670091173796 L5.134148727523964 1.2308781717837924 L5.134148727523964 1.2308781717837924 z"/>
<path fill="#c0c0c0" stroke="#c0c0c0" d="M1.0091175676581665 5.570408483909742 L1.0091175676581665 5.570408483909742 L2.0794069049167123 3.8532880708198354 L2.0794069049167123 3.8532880708198354 z"/>
<path fill="#c0c0c0" stroke="#c0c0c0" d="M0.10248160157298124 11.48861991877741 L0.10248160157298124 11.48861991877741 L-2.49307690483373e-7 9.467850012643455 L-2.49307690483373e-7 9.467850012643455 z"/>
<path fill="#c0c0c0" stroke="#c0c0c0" d="M0.30639398775241056 7.467820610901199 L0.30639398775241056 7.467820610901199 L7.377164132232594e-7 9.467850113013997 L7.377164132232594e-7 9.467850113013997 z"/>
<path fill="#c0c0c0" stroke="#c0c0c0" d="M0.3063938362307802 7.467821420783867 L0.3063938362307802 7.467821420783867 L1.0091181196718138 5.57040930360291 L1.0091181196718138 5.57040930360291 z"/>
<path fill="#c0c0c0" stroke="#c0c0c0" d="M1.5007233093049284 15.263988376708435 L1.5007233093049284 15.263988376708435 L0.6096433607873856 13.447398351455083 L0.6096433607873856 13.447398351455083 z"/>
<path fill="#c0c0c0" stroke="#c0c0c0" d="M0.609643721992238 13.44739903630944 L0.609643721992238 13.44739903630944 L0.10248064783086604 11.488619832264966 L0.10248064783086604 11.488619832264966 z"/>
<path fill="#c0c0c0" stroke="#c0c0c0" d="M2.7392402779502905 16.86401978485046 L2.7392402779502905 16.86401978485046 L1.5007231488270782 15.263987562626415 L1.5007231488270782 15.263987562626415 z"/>
<path fill="#c0c0c0" stroke="#c0c0c0" d="M4.27448073065612 18.18197914888749 L4.27448073065612 18.18197914888749 L2.739240883722318 16.864018970586713 L2.739240883722318 16.864018970586713 z"/>
<path fill="#c0c0c0" stroke="#c0c0c0" d="M6.043608336227685 19.163925302825756 L6.043608336227685 19.163925302825756 L7.974181122538135 19.769646422212286 L7.974181122538135 19.769646422212286 z"/>
<path fill="#c0c0c0" stroke="#c0c0c0" d="M6.043607172148069 19.163925094813038 L6.043607172148069 19.163925094813038 L4.274480251250999 18.181979547332425 L4.274480251250999 18.181979547332425 z"/>
<path fill="#c0c0c0" stroke="#c0c0c0" d="M4.27448 18.18198 L6.04361 19.16392 L7.97418 19.76965 L9.98717 19.97435 L12.00015 19.76965 L13.93072 19.16392 L15.69985 18.18198 L17.23509 16.86402 L18.47361 15.26399 L19.36469 13.4474 L19.87185 11.48862 L19.97433 9.46785 L19.66794 7.46782 L18.96521 5.57041 L17.89492 3.85329 L16.50089 2.38677 L14.84018 1.23088 L12.9808 0.43295 L10.99885 0.02565 L8.97548 0.02565 L6.99353 0.43295 L5.13415 1.23088 L3.47344 2.38677 L2.07941 3.85329 L1.00912 5.57041 L0.30639 7.46782 L0 9.46785 L0.10248 11.48862 L0.60964 13.4474 L1.50072 15.26399 L2.73924 16.86402 z"/>
</svg>